<?xml version="1.0" encoding="utf-8"?>
<!-- Generator: Adobe Illustrator 26.0.1, SVG Export Plug-In . SVG Version: 6.00 Build 0)  -->
<svg version="1.1" id="Calque_1" xmlns="http://www.w3.org/2000/svg" xmlns:xlink="http://www.w3.org/1999/xlink" x="0px" y="0px"
	 viewBox="0 0 595.3 841.9" style="enable-background:new 0 0 595.3 841.9;" xml:space="preserve">
<style type="text/css">
	.st0{fill:#F70000;}
	.st1{fill:#FFFFFF;}
	.st2{font-family:'Spac3-Techv17-Italic';}
	.st3{font-size:54.4245px;}
	.st4{font-family:'EthnocentricRg-Regular';}
</style>
<g>
	<g id="XMLID_00000029007054646680865800000017955843876384321934_">
		<g>
		</g>
		<g>
		</g>
	</g>
	<g id="XMLID_00000096781953634708404960000017606577552625394083_">
		<g>
			<path class="st0" d="M148.4,435.5c0,3.1,0,6.2,0,9.4c0,3.9-0.1,7.8,0.2,11.7c0.2,2.6-0.6,3.4-3.3,3.4
				c-15.1-0.1-30.2-0.1-45.3-0.1c-8.5,0-17-0.1-25.5,0.1c-2.6,0-3.5-0.6-3.5-3.3c0-5.8-0.4-11.6-0.5-17.4c0-2-0.6-3-2-2.9
				c1.2-0.9,2.6-1.9,4-3c0.3-0.2,0.6-0.5,0.8-0.9c4.7-6.6,10.9-8.6,19-8.4c15.2,0.4,30.4-0.4,45.6-0.8c2.8-0.1,4.6,0.8,5.7,3.4
				c0.5,1.1,1.2,2.1,1.7,3.2c1.4,2.9,2.7,5.7,7.1,4.1c-0.1,0.3-0.1,0.6-0.2,0.8C151.1,435,149.9,435.2,148.4,435.5z"/>
		</g>
		<g>
		</g>
	</g>
	<g id="XMLID_00000009572767582344499570000004122960386990964383_">
		<g>
			<path class="st0" d="M215,404.2c-15.6,0-30.9,1.7-45.9,5.8c-0.3,0.1-0.7,0-1.1,0c-0.1-0.3-0.1-0.6-0.2-0.8
				c7.4-1.9,14.9-3.9,23.1-6c-24.3-0.9-47.8-0.2-71.3,2.6c-0.1-0.3-0.2-0.6-0.3-0.9c2.6-1.9,5.1-3.9,7.7-5.8c4.4-3.2,9-6.4,13.4-9.5
				c7.8-5.5,16.7-7.5,26-8.1c19.2-1.4,38.3-1.5,57.5-0.1c0.9,0.1,1.7,0.3,2.9,0.6c-1.6,4.3-3.2,8.2-4.7,12.2c-0.8,2-1.6,4.1-2.2,6.2
				C219.3,403.1,217.7,404.2,215,404.2z"/>
		</g>
		<g>
		</g>
	</g>
	<g id="XMLID_00000088097381662257003900000015997042684406290078_">
		<g>
			<path class="st0" d="M273.6,406.4c-8.4,0-16,0-23.8,0c0.4-3,0.8-5.6-2.6-7c-4.1-1.6-8.3-3.1-12.2-0.2c-1.4,1-2.4,3.2-2.8,5
				c-0.5,2.4-1.9,2.2-3.5,2c-2.1-0.2-1.5-1.9-1.1-3c1.9-5.7,3.8-11.4,6-16.9c0.4-0.9,2.2-2.1,3.1-1.9c13,2.6,25.8,6,34.3,17.5
				C272,403.1,272.6,404.5,273.6,406.4z"/>
		</g>
		<g>
		</g>
	</g>
	<g id="XMLID_00000096043899763952245330000006359154785885879970_">
		<g>
			<path class="st0" d="M159.2,421.4c1.7,0.3,3.8,0.2,5.4-0.6c14.2-7,29.5-9.6,45.1-11.1c0.9-0.1,1.8,0,2.4,0
				c-17.7,3.4-32.1,10.7-34.3,31.5c0.2-3.9,0.4-7.9,0.6-12.2c-4.9,0.5-9.5,1-14.1,1.3c-1.8,0.1-4.9,0.2-5.3-0.7
				c-0.8-1.8-0.2-4.2-0.2-6.8c-7.8-4.7-17.3-1.4-26.3-3.6c2.9,0,5.9,0,8.9,0c3,0,6-0.4,9,0C153.3,419.5,156.2,420.9,159.2,421.4z"/>
		</g>
		<g>
		</g>
	</g>
	<g id="XMLID_00000111887738489392051260000018240265579042305977_">
		<g>
			<path class="st0" d="M288.8,406.6c0,0.7-0.8,1.8-1.4,1.9c-1.5,0.4-3.1,0.2-4.7,0.3c0-0.2,0.1-0.5,0.2-0.7c-1-0.9-1.9-1.8-3.4-3.2
				c3,0,5.4-0.1,7.8,0.1C287.8,404.9,288.8,406,288.8,406.6z"/>
		</g>
		<g>
		</g>
	</g>
</g>
<text transform="matrix(0.576 0 0 1 181.0034 459.9555)"><tspan x="0" y="0" class="st1 st2 st3">T</tspan><tspan x="48" y="0" class="st1 st4 st3">tuni tuning</tspan></text>
</svg>
